# Blender v2.76 (sub 0) OBJ File: 'race track.blend'
# www.blender.org
mtllib map10.mtl
o map3.004_map3.005
v -2.933007 0.103974 7.744955
v -2.933007 0.103974 2.694752
v 0.602146 0.103974 2.694752
v 0.602146 0.103974 7.744955
v 6.409867 -0.653555 -2.355447
v 1.359667 -0.653555 -2.355447
v 1.359667 -0.653554 -7.405648
v 6.409867 -0.653554 -7.405648
v 3.857038 0.103975 -2.355446
v 1.359355 0.103976 -4.856043
v 0.109951 0.103975 -3.605305
v -1.138467 0.103975 -2.357355
v 2.610901 0.103975 -1.107282
v 1.359355 0.103975 -2.355446
v 1.361327 0.103975 0.142314
v 0.708613 0.103975 0.888766
v 0.753679 0.103975 0.801892
v 0.806127 0.103975 0.719322
v 0.884667 0.103975 0.621428
v 0.963344 0.103975 0.540274
v -0.286508 0.103975 -0.709587
v -2.933007 0.103974 2.694753
v -1.165437 0.103974 2.694753
v 0.602133 0.103974 2.694753
v 0.641910 0.103975 1.072737
v 0.620796 0.103975 1.168428
v 0.671255 0.103975 0.979278
v 0.608067 0.103975 1.265620
v 0.602133 0.103975 1.358059
v -2.933007 0.103975 1.358059
v -1.165437 0.103975 1.358059
v -1.536372 0.103975 -1.959448
v -2.918289 0.103975 0.954782
v -1.150873 0.103975 1.109900
v -2.869834 0.103975 0.566807
v -1.120788 0.103975 0.867332
v -2.788781 0.103975 0.184911
v -1.070392 0.103975 0.628571
v -2.675720 0.103975 -0.187985
v -1.000020 0.103975 0.395444
v -2.531539 0.103975 -0.549032
v -0.910260 0.103975 0.169733
v -2.357338 0.103975 -0.895470
v -0.801807 0.103975 -0.046838
v -2.154426 0.103975 -1.224648
v -1.855277 0.103975 -1.616923
v -0.488097 0.103975 -0.497643
v -0.675474 0.103975 -0.252611
v 1.359667 -0.653556 2.694752
v 1.359667 -0.653555 -2.355449
v 6.409867 -0.653555 -2.355449
vt 0.000000 0.000000
vt 1.000000 0.000000
vt 0.000000 1.000000
vt 1.000000 1.000000
vt 0.500000 -0.318600
vt 0.000000 -0.320500
vt 0.000000 -0.669600
vt 1.000000 -0.669100
vt 1.000000 -0.318900
vt 1.000000 0.031400
vt 1.000000 0.140200
vt 0.500000 0.140200
vt 0.000000 0.028600
vt 0.000000 0.140200
vt 0.500000 0.422000
vt 0.000000 0.422000
vt 0.500000 0.359500
vt 0.000000 0.484500
vt 0.000000 0.359500
vt 0.500000 0.297000
vt 0.000000 0.297000
vt 0.500000 0.234500
vt 0.000000 0.234500
vt 1.000000 0.742000
vt 0.500000 1.000000
vt 0.500000 0.742000
vt 0.000000 0.742000
vt 0.500000 0.547000
vt 0.000000 0.547000
vt 0.500000 0.484500
vt 0.000000 0.609500
vt 0.000000 0.672000
vt 0.500000 0.609500
vt 0.500000 0.672000
vt 1.000000 0.672000
vt 1.000000 0.234500
vt 1.000000 0.609500
vt 1.000000 0.547000
vt 1.000000 0.484500
vt 1.000000 0.422000
vt 1.000000 0.359500
vt 1.000000 0.297000
vn 0.000000 1.000000 0.000000
usemtl Race_Track_Base_c.001
s off
f 1/1/1 4/2/1 2/3/1
f 4/2/1 3/4/1 2/3/1
f 14/5/1 13/6/1 9/7/1
f 14/5/1 10/8/1 11/9/1
f 11/9/1 12/10/1 14/5/1
f 12/10/1 32/11/1 21/12/1
f 14/5/1 12/10/1 21/12/1
f 14/5/1 15/13/1 13/6/1
f 14/5/1 21/12/1 15/13/1
f 21/12/1 20/14/1 15/13/1
f 42/15/1 16/16/1 44/17/1
f 27/18/1 16/16/1 42/15/1
f 16/16/1 17/19/1 44/17/1
f 44/17/1 17/19/1 48/20/1
f 17/19/1 18/21/1 48/20/1
f 48/20/1 18/21/1 47/22/1
f 18/21/1 19/23/1 47/22/1
f 19/23/1 20/14/1 47/22/1
f 20/14/1 21/12/1 47/22/1
f 47/22/1 21/12/1 32/11/1
f 30/24/1 22/4/1 23/25/1
f 31/26/1 30/24/1 23/25/1
f 31/26/1 23/25/1 24/3/1
f 29/27/1 31/26/1 24/3/1
f 38/28/1 25/29/1 40/30/1
f 25/29/1 27/18/1 40/30/1
f 26/31/1 25/29/1 38/28/1
f 28/32/1 26/31/1 36/33/1
f 36/33/1 26/31/1 38/28/1
f 40/30/1 27/18/1 42/15/1
f 34/34/1 28/32/1 36/33/1
f 29/27/1 28/32/1 34/34/1
f 31/26/1 29/27/1 34/34/1
f 30/24/1 31/26/1 33/35/1
f 31/26/1 34/34/1 33/35/1
f 46/36/1 47/22/1 32/11/1
f 33/35/1 34/34/1 35/37/1
f 34/34/1 36/33/1 35/37/1
f 35/37/1 36/33/1 37/38/1
f 36/33/1 38/28/1 37/38/1
f 37/38/1 38/28/1 39/39/1
f 38/28/1 40/30/1 39/39/1
f 39/39/1 40/30/1 41/40/1
f 40/30/1 42/15/1 41/40/1
f 41/40/1 42/15/1 43/41/1
f 42/15/1 44/17/1 43/41/1
f 43/41/1 44/17/1 45/42/1
f 44/17/1 48/20/1 45/42/1
f 45/42/1 48/20/1 46/36/1
f 48/20/1 47/22/1 46/36/1
usemtl lambert4.001
f 5/2/1 8/4/1 6/1/1
f 8/4/1 7/3/1 6/1/1
usemtl lambert1.001
f 51/4/1 50/3/1 49/1/1
