# Blender v2.76 (sub 0) OBJ File: 'race track.blend'
# www.blender.org
mtllib map5.mtl
o map3.003
v -2.764601 0.395725 1.911718
v -2.764601 0.395726 -2.918776
v 0.770552 0.395726 -2.918776
v 1.528087 0.545957 -2.435389
v -3.522114 0.545957 -2.435389
v -3.522114 0.546745 -2.540208
v -3.522114 0.545957 -2.435389
v 1.528087 0.545957 -2.435389
v -3.522114 0.528644 -2.282625
v -3.522114 0.546745 -2.540208
v -3.522114 0.528644 -2.540208
v 1.528090 0.546745 -2.540210
v 1.528090 0.528643 1.252511
v -3.522114 0.528643 1.252511
v -3.522114 0.528644 -2.282645
v 1.528090 0.528644 -2.282645
v -3.522114 0.546745 1.510081
v -3.522114 0.545956 1.405256
v 1.528090 0.545956 1.405256
v 1.528090 0.546745 1.510081
v 1.528090 0.545956 1.405256
v -3.522114 0.545956 1.405256
v -3.522114 0.528643 1.252516
v 1.528090 0.528643 1.252516
v 1.528090 0.528643 1.510081
v -3.522114 0.528643 1.510081
v -3.522114 0.546745 1.510081
v 1.528090 0.528644 -2.282645
v -3.522114 0.528644 -2.282645
v -3.522114 0.528644 -2.958059
v 1.528090 0.528643 1.252494
v 1.528090 0.528643 1.950888
v -3.522114 0.528643 1.950888
v -3.522114 0.528643 1.252494
v 1.417822 0.390459 1.935249
v 1.417822 0.390459 2.033552
v 0.660288 0.390459 2.033552
v -2.874865 0.390459 2.033552
v -2.874865 0.390460 -3.016646
v 0.660288 0.390459 1.935249
v -2.874865 0.390459 1.935249
v -2.874865 0.390460 -2.895245
v 0.660288 0.390460 -2.895245
v 1.417822 0.390460 -2.895359
v 1.417822 0.390460 -3.016646
v 0.660288 0.390460 -3.016646
v -3.632379 0.390459 1.935249
v -3.632379 0.018996 1.935249
v -3.632379 -0.486663 1.935249
v -3.632379 -0.486663 -2.895356
v -3.632379 0.018997 -2.895356
v 1.417835 0.390459 1.935025
v 1.417835 0.390460 -2.895131
v 1.417835 -0.486663 -2.895131
v 1.417835 -0.486663 1.935025
v 1.417835 0.018996 1.935025
v 1.417835 0.018997 -2.895131
v 1.417822 0.523377 2.033552
v 1.417822 0.390459 2.033552
v 1.417835 0.390459 1.935025
v 1.417822 0.523378 -3.016646
v 1.417822 0.390460 -3.016646
v 1.417822 0.390460 -3.016646
v 1.417835 0.390460 -2.895131
v 1.417835 0.390459 1.935025
v 1.417822 0.523378 -3.016646
v 1.417825 0.523378 -2.934528
v -3.632379 0.523378 -3.016646
v 1.417835 0.390460 -2.895131
v 0.660288 0.390460 -2.895359
v 0.660288 0.018997 -2.895359
v 0.660288 -0.486663 -2.895359
v 1.417835 -0.486663 -2.895131
v 1.417835 0.018997 -2.895131
v 1.417822 0.390460 -3.016646
v 1.417822 0.523378 -3.016646
v -3.632379 0.523378 -3.016646
v -3.632380 0.390460 -3.016646
v -2.874830 0.390460 -2.895131
v -3.632379 0.390460 -2.895356
v -3.632379 0.018997 -2.895356
v -3.632379 -0.486663 -2.895356
v -2.874830 -0.486663 -2.895131
v -2.874830 0.018997 -2.895131
v 0.660288 0.390459 1.935249
v 1.417835 0.390459 1.935025
v 1.417835 -0.486663 1.935025
v 0.660288 -0.486663 1.935249
v 0.660288 0.018996 1.935249
v 1.417835 0.018996 1.935025
v -2.874830 -0.486663 1.935025
v -3.632379 -0.486663 1.935249
v -3.632379 0.018996 1.935249
v -2.874830 0.018996 1.935025
v 1.417822 0.523377 2.033552
v 1.417822 0.390459 2.033552
v -3.632379 0.390459 2.033552
v 0.660288 0.390460 -2.895131
v 0.660288 0.390459 1.935249
v 0.660288 -0.486663 1.935249
v 0.660288 -0.486662 -2.895131
v 0.660288 0.018997 -2.895131
v 0.660288 0.018996 1.935249
v -2.874868 0.390460 -2.895131
v -2.874868 -0.486662 -2.895131
v -2.874868 -0.486663 1.935249
v -2.874868 0.018996 1.935249
v -2.874868 0.018997 -2.895131
v -2.874865 -0.486664 2.034438
v -2.874865 -0.486663 -3.015765
v 0.660288 -0.486663 -3.015765
v 0.660288 -0.486664 2.034438
v 1.417825 0.523377 -2.516679
v 1.417825 0.523377 -2.259099
v 1.417825 0.540691 -2.411868
v 1.417825 0.541479 -2.516679
v 1.417825 0.541479 -2.516679
v 1.417822 0.540691 -2.411858
v -3.632379 0.541479 -2.516677
v 1.417822 0.540691 -2.411858
v 1.417825 0.523377 -2.259099
v -3.632379 0.523377 -2.259094
v -3.632379 0.523377 -2.516677
v 1.417825 0.523377 -2.516679
v 1.417825 0.541479 -2.516679
v 1.417835 -0.486663 -2.895131
v 0.660288 -0.486662 -2.895131
v 0.660291 -0.486663 -3.015763
v 1.417821 -0.486663 -3.015765
v -2.874865 -0.486662 -2.895131
v -3.632379 -0.486663 -2.895359
v -2.874848 -0.486663 -3.015765
v 1.417821 -0.486664 2.034438
v 0.660291 -0.486664 2.034438
v 0.660288 -0.486663 1.935252
v 1.417821 -0.486663 1.935025
v -2.874848 -0.486664 2.034438
v -3.632379 -0.486664 2.034438
v -3.632379 -0.486663 1.935252
v -2.874865 -0.486663 1.935252
v -3.632379 -0.486663 -3.016646
v -3.632379 -0.486664 2.033552
v -3.632379 0.018394 2.033552
v -3.632379 0.018395 -3.016646
v 0.376604 0.835865 -2.992837
v 0.376604 0.523377 -2.992838
v 0.353985 0.523377 -2.992838
v 0.353985 0.835865 -2.992837
v 0.353985 0.523377 -2.992838
v 0.353985 0.523377 -3.015761
v 0.376604 0.523377 -2.992838
v 0.376604 0.835865 -2.992837
v 0.376604 0.523377 -3.015761
v 0.376604 0.523377 -3.015761
v 0.376604 0.835865 -3.015760
v 0.353985 0.523377 -3.015761
v 0.810991 0.835865 -2.992837
v 0.810991 0.523377 -2.992838
v 0.788371 0.523377 -2.992838
v 0.788371 0.835865 -2.992837
v 0.788371 0.523377 -2.992838
v 0.788371 0.523377 -3.015761
v 0.810991 0.523377 -2.992838
v 0.810991 0.835865 -2.992837
v 0.810991 0.523377 -3.015761
v 0.810991 0.523377 -3.015761
v 0.810991 0.835865 -3.015760
v 0.788371 0.523377 -3.015761
v 0.366080 0.587475 -2.991987
v 0.800074 0.658547 -2.991987
v 0.800074 0.587475 -2.991987
v 0.366080 0.629594 -2.991987
v 0.800074 0.614283 -2.991987
v 0.800074 0.629594 -2.991987
v 1.216257 0.614283 -2.991989
v 0.366080 0.614283 -2.991987
v 0.366080 0.587475 -2.991987
v 0.366080 0.599959 -2.985149
v 0.800074 0.614283 -2.991987
v 0.800074 0.587475 -2.991987
v 0.800074 0.599959 -2.985149
v 1.216257 0.587475 -2.991989
v 1.216257 0.599959 -2.985149
v 0.366080 0.587475 -3.016626
v 0.366080 0.658547 -3.016626
v 0.800074 0.587475 -3.016626
v 0.800074 0.658547 -3.016626
v 1.216257 0.587475 -3.016626
v 0.366080 0.614283 -3.016626
v 0.800074 0.629594 -3.016626
v 0.800074 0.614283 -3.016626
v 0.366080 0.614283 -3.016626
v 0.366080 0.599959 -3.023298
v 0.366080 0.587475 -3.016626
v 0.800074 0.614283 -3.016626
v 0.800074 0.599959 -3.023298
v 0.800074 0.587475 -3.016626
v 1.216257 0.614283 -3.016626
v 1.216257 0.599959 -3.023298
v -2.874865 -0.486664 7.084640
v -2.874865 -0.486664 2.034435
v 0.660288 -0.486664 2.034435
v 0.660288 -0.486664 7.084640
v 1.417825 0.540690 1.428787
v 1.417825 0.523377 1.276047
v 1.417825 0.523377 1.533612
v 1.417825 0.541479 1.533612
v 1.417821 -0.486664 7.084640
v 0.660291 -0.486664 7.084640
v 0.660291 -0.486664 2.034438
v 1.417821 -0.486664 2.034435
v -2.874848 -0.486664 7.084640
v -3.632379 -0.486664 7.084640
v -3.632379 -0.486664 2.034435
v -2.874848 -0.486664 2.034435
v 1.417825 0.523378 -2.934528
v 1.417825 0.523378 -2.259114
v -3.632379 0.523378 -2.934528
v 1.417822 0.523377 1.533612
v 1.417822 0.523377 1.276043
v 1.419548 0.540604 1.428787
v 1.419626 0.541389 1.533612
v 1.417822 -0.991647 7.084640
v 1.417818 -0.486664 7.084640
v 1.417818 -0.486664 2.034438
v 1.417822 -0.991646 2.034438
v 0.917856 -0.486663 -3.015763
v 0.660272 -0.486663 -3.015763
v 0.813044 -0.469349 -3.015763
v 0.917856 -0.468561 -3.015763
v 1.393162 -0.395758 2.034435
v 1.386324 -0.410082 2.034435
v 1.393162 -0.422566 2.034435
v 1.393162 -0.351494 2.034435
v 1.386324 -0.369087 2.034435
v 1.393162 -0.380447 2.034435
v 1.393162 -0.266567 2.034435
v 1.386324 -0.284133 2.034435
v 1.393162 -0.296481 2.034435
v 1.393162 -0.228815 2.034435
v 1.386324 -0.242150 2.034435
v 1.393162 -0.258205 2.034435
v 1.393162 -0.179228 2.034435
v 1.386324 -0.197204 2.034435
v 1.393162 -0.210540 2.034435
v 1.417802 -0.395758 2.034435
v 1.417802 -0.422566 2.034435
v 1.424474 -0.410082 2.034435
v 1.417802 -0.351494 2.034435
v 1.417802 -0.380447 2.034435
v 1.424474 -0.369087 2.034435
v 1.417802 -0.315250 2.034435
v 1.417802 -0.343192 2.034435
v 1.424474 -0.331055 2.034435
v 1.417802 -0.266567 2.034435
v 1.417802 -0.296481 2.034435
v 1.424474 -0.284133 2.034435
v 1.417802 -0.228815 2.034435
v 1.417802 -0.258205 2.034435
v 1.424474 -0.242150 2.034435
v 1.417802 -0.179228 2.034435
v 1.417802 -0.210540 2.034435
v 1.424474 -0.197204 2.034435
v 1.417825 0.523377 -2.259099
v 1.417825 0.523378 -2.516679
v 1.419626 0.541389 -2.516679
v 0.813044 -0.469350 2.034435
v 0.660272 -0.486664 2.034435
v 0.917856 -0.486664 2.034435
v 0.917856 -0.468562 2.034435
v 0.917853 -0.468563 7.084640
v 0.813031 -0.469351 7.084640
v 0.813031 -0.469350 2.034435
v 0.917853 -0.468562 2.034435
v 0.813031 -0.469350 2.034435
v 0.813031 -0.469351 7.084640
v 0.660272 -0.486664 7.084640
v 0.660272 -0.486664 2.034435
v 0.917853 -0.468562 2.034435
v 0.917853 -0.486664 2.034435
v 0.917853 -0.486664 7.084640
v 0.917853 -0.468563 7.084640
v -3.027612 -0.469349 -3.015763
v -2.874868 -0.486663 -3.015763
v -3.132436 -0.486663 -3.015763
v -3.132436 -0.468561 -3.015763
v -3.632393 -1.244194 2.034435
v 1.417808 -1.244194 2.034435
v 1.417808 -1.244194 7.084635
v -3.632393 -1.244194 7.084635
v -3.132436 -0.486664 2.034435
v -2.874868 -0.486664 2.034435
v -3.027612 -0.469350 2.034435
v -3.132436 -0.468562 2.034435
v -3.132439 -0.468562 2.034435
v -3.027612 -0.469350 2.034435
v -3.027612 -0.469351 7.084640
v -3.132439 -0.468563 7.084640
v -3.027612 -0.469351 7.084640
v -3.027612 -0.469350 2.034435
v -2.874868 -0.486664 2.034435
v -2.874868 -0.486664 7.084640
v -3.132439 -0.468563 7.084640
v -3.132439 -0.486664 7.084640
v -3.132439 -0.486664 2.034435
v -3.132439 -0.468562 2.034435
v 6.468097 -0.991647 2.033569
v 1.417825 -0.991647 2.033569
v 1.417825 -0.486590 2.033569
v 1.417825 -0.486590 2.033569
v 1.417825 -0.486661 -3.016632
v 1.417825 0.018395 -3.016644
v 1.417825 0.018467 2.033556
v 1.417825 -0.991647 2.033569
v 1.417825 -0.991719 -3.016632
v 1.417825 -0.486661 -3.016632
v 1.417825 -0.486590 2.033569
v 1.417825 0.018467 2.033556
v 1.417825 0.018395 -3.016644
v 1.417825 0.523378 -3.016644
v 1.417825 0.523377 2.033555
vt 9.324500 0.500000
vt 9.324500 0.868400
vt 11.377800 0.500000
vt 9.324500 0.000000
vt 11.377800 0.000000
vt 11.377800 0.868400
vt 1.577900 1.000000
vt -0.577900 1.000000
vt -0.577900 0.868400
vt -0.526600 0.868400
vt 1.577900 0.868400
vt 1.526600 0.868400
vt -0.485800 0.806700
vt 1.423700 0.806700
vt -0.485800 0.919700
vt 6.235000 0.878600
vt 6.577400 0.878600
vt 6.577400 0.512200
vt 6.235000 0.512200
vt 6.235000 0.000000
vt 6.577400 0.000000
vt 0.000000 0.519400
vt 1.909500 0.519400
vt 0.000000 0.707900
vt 1.909500 0.707900
vt 5.826800 0.876100
vt 6.162500 0.876100
vt 6.162500 0.515300
vt 5.826800 0.515300
vt 5.826800 0.000000
vt 6.162500 0.000000
vt 5.682700 0.879600
vt 5.340300 0.879600
vt 5.340300 0.508200
vt 5.682700 0.508200
vt 5.682700 0.000000
vt 5.340300 0.000000
vt 2.451200 0.000000
vt 2.451200 0.506500
vt 2.142300 0.000000
vt 2.142300 0.506500
vt 9.262600 0.874000
vt 6.667000 0.874000
vt 6.667000 0.515000
vt 9.262600 0.515000
vt 9.262600 0.000000
vt 6.667000 0.000000
vt 5.234400 0.514400
vt 5.234400 0.880400
vt 3.050100 0.514400
vt 5.234400 0.000000
vt 3.050100 0.000000
vt 0.000000 -0.000000
vt 2.000000 -0.000000
vt 2.000000 0.516600
vt 0.000000 0.516600
vt -0.564300 0.000000
vt 1.564300 0.000000
vt -0.564300 0.499300
vt 1.564300 0.499300
vt 1.000000 0.517300
vt 1.000000 0.000000
vt -1.000000 0.000000
vt -0.000000 0.516300
vt 0.000000 0.880300
vt 2.000000 0.516300
vt 2.000000 0.880200
vt 2.000000 0.516900
vt 0.000000 0.516800
vt 2.000000 1.000000
vt 0.000000 0.516500
vt 0.000000 1.000000
vt 1.000000 1.000000
vt 0.000000 0.926200
vt 0.000000 0.593400
vt 8.000000 0.593400
vt 8.000000 0.926200
vt 8.000000 0.000000
vt 8.000000 1.000000
vt 0.994800 0.028100
vt 0.994800 0.128400
vt 0.508200 0.028100
vt 0.802300 0.124700
vt 0.294700 0.829500
vt 0.487200 0.825800
vt 0.000600 0.926100
vt 0.487200 0.926100
vt 2.000000 1.951700
vt 2.000000 2.000000
vt 1.700000 1.951700
vt 1.700000 2.000000
vt 0.300000 1.951700
vt 0.300000 2.000000
vt 0.000000 1.951700
vt 2.000000 0.039700
vt 1.700000 -0.000000
vt 1.700000 0.039700
vt 0.300000 -0.000000
vt 0.300000 0.039700
vt 0.000000 0.039700
vt 0.000000 2.000000
vt 0.658400 0.093100
vt 0.658400 0.002400
vt 0.299900 0.002400
vt 0.657900 0.093100
vt 0.657900 0.002400
vt 0.299700 0.002400
vt 0.489300 0.107500
vt 0.833100 0.107500
vt 0.489300 0.374300
vt 0.489300 0.265600
vt 0.833100 0.265600
vt 0.489300 0.208100
vt 0.159700 0.208100
vt 0.833100 0.208100
vt 0.489300 0.154400
vt 0.833100 0.154400
vt 0.159700 0.154400
vt 0.159700 0.107500
vt 0.833100 0.374300
vt 0.505500 0.104700
vt 0.494500 0.150400
vt 0.505500 0.203000
vt 0.505500 0.259100
vt 0.494500 0.300700
vt 0.505500 0.365300
vt 0.505500 0.567000
vt 0.494500 0.612200
vt 0.505500 0.676700
vt 0.505500 0.707300
vt 0.494500 0.766200
vt 0.505500 0.815100
vt 0.505500 0.882100
vt 0.494500 0.931000
vt 0.505500 0.996900
vt 0.494500 0.440200
vt 0.505500 0.395700
vt 0.505500 0.498100
vt 2.000000 0.275800
vt 2.000000 0.033300
vt -0.000000 0.033300
vt -0.000000 0.018100
vt 2.000000 0.018100
vt -0.000000 0.261300
vt 2.000000 0.261300
vt -0.000000 0.275800
vt 0.293200 2.470600
vt 0.293200 -3.597100
vt -1.293200 -3.597100
vt -1.293200 2.470600
vt -1.633100 2.470600
vt -1.633100 2.618300
vt -1.293200 2.618300
vt 0.293200 2.618300
vt 0.293200 -3.745000
vt -1.293200 -3.745000
vt -1.633100 -3.597300
vt -1.633100 -3.745000
vn -1.000000 0.000000 0.000000
vn 1.000000 0.000000 0.000000
vn 1.000000 0.004900 0.000100
vn 0.013200 0.999900 0.000000
vn 0.000000 1.000000 0.000000
vn 0.000300 0.000000 -1.000000
vn 0.000000 0.000000 -1.000000
vn 0.000300 0.000000 1.000000
vn 0.000000 0.000000 1.000000
vn 0.000000 1.000000 0.007500
vn 0.000000 0.993600 0.112600
vn 0.000000 1.000000 -0.007500
vn 0.000000 0.993600 -0.112600
vn -0.995000 0.099600 0.000000
vn -0.995000 0.099700 -0.000000
vn -0.995000 0.099400 0.000000
vn -0.007500 1.000000 0.000000
vn -0.112600 0.993600 0.000000
vn 0.007500 1.000000 0.000000
vn 0.112600 0.993600 0.000000
vn 0.000000 0.430800 0.902400
vn 0.000000 -0.480400 0.877000
vn 0.000000 0.422200 -0.906500
vn 0.000000 -0.471300 -0.882000
vn 0.000000 -1.000000 -0.000000
usemtl Bridge_Wall_c.001
s off
f 48/1/1 47/2/1 51/3/1
f 48/1/1 51/3/1 49/4/1
f 51/3/1 50/5/1 49/4/1
f 53/6/2 52/2/2 56/1/2
f 57/3/2 53/6/2 56/1/2
f 54/5/2 57/3/2 55/4/2
f 57/3/2 56/1/2 55/4/2
f 61/7/2 58/8/2 59/9/2
f 61/7/3 59/9/3 60/10/3
f 62/11/2 61/7/2 60/10/2
f 65/10/4 64/12/4 63/11/4
f 66/13/5 68/14/5 67/15/5
f 70/16/6 69/17/6 74/18/6
f 71/19/6 70/16/6 74/18/6
f 71/19/6 74/18/6 72/20/6
f 74/18/6 73/21/6 72/20/6
f 75/22/7 78/23/7 76/24/7
f 78/23/7 77/25/7 76/24/7
f 80/26/6 79/27/6 84/28/6
f 81/29/6 80/26/6 84/28/6
f 81/29/6 84/28/6 82/30/6
f 84/28/6 83/31/6 82/30/6
f 86/32/8 85/33/8 89/34/8
f 90/35/8 86/32/8 89/34/8
f 87/36/8 90/35/8 88/37/8
f 90/35/8 89/34/8 88/37/8
f 91/38/8 94/39/8 92/40/8
f 94/39/8 93/41/8 92/40/8
f 97/23/9 96/22/9 95/24/9
f 99/42/1 98/43/1 102/44/1
f 103/45/1 99/42/1 102/44/1
f 100/46/1 103/45/1 101/47/1
f 103/45/1 102/44/1 101/47/1
f 108/48/2 104/49/2 107/50/2
f 105/51/2 108/48/2 106/52/2
f 108/48/2 107/50/2 106/52/2
f 142/53/2 141/54/2 144/55/2
f 143/56/2 142/53/2 144/55/2
f 223/57/2 226/58/2 224/59/2
f 226/58/2 225/60/2 224/59/2
f 309/61/9 308/62/9 307/63/9
f 310/64/1 313/65/1 311/66/1
f 313/65/1 312/67/1 311/66/1
f 314/54/1 317/68/1 315/53/1
f 317/68/1 316/69/1 315/53/1
f 318/55/1 321/70/1 319/71/1
f 321/70/1 320/72/1 319/71/1
usemtl Race_Track_Base_c.001
f 13/53/5 16/62/5 14/72/5
f 16/62/5 15/73/5 14/72/5
f 109/53/5 112/62/5 110/72/5
f 112/62/5 111/73/5 110/72/5
f 200/53/5 203/62/5 201/72/5
f 203/62/5 202/73/5 201/72/5
usemtl Curb_01_c.001
f 6/74/10 5/75/10 4/76/10
f 7/75/11 9/53/11 8/76/11
f 10/74/7 12/77/7 11/72/7
f 17/77/12 20/74/12 18/76/12
f 20/74/12 19/75/12 18/76/12
f 21/75/13 24/53/13 22/76/13
f 24/53/13 23/78/13 22/76/13
f 27/77/9 26/79/9 25/72/9
f 113/80/2 116/81/2 114/82/2
f 116/81/2 115/83/2 114/82/2
f 117/77/10 119/74/10 118/76/10
f 122/53/11 121/78/11 120/76/11
f 125/77/7 124/79/7 123/72/7
f 204/84/2 207/85/2 205/86/2
f 207/85/2 206/87/2 205/86/2
f 219/80/14 222/81/14 220/82/14
f 222/81/15 221/83/15 220/82/15
f 227/80/9 230/81/9 228/82/9
f 230/81/9 229/83/9 228/82/9
f 266/85/16 265/87/16 264/86/16
f 267/84/7 270/85/7 268/86/7
f 270/85/7 269/87/7 268/86/7
f 271/77/17 274/74/17 272/76/17
f 274/74/17 273/75/17 272/76/17
f 275/75/18 278/53/18 276/76/18
f 278/53/18 277/78/18 276/76/18
f 279/74/2 282/77/2 280/72/2
f 282/77/2 281/79/2 280/72/2
f 283/84/9 286/85/9 284/86/9
f 286/85/9 285/87/9 284/86/9
f 291/80/7 294/81/7 292/82/7
f 294/81/7 293/83/7 292/82/7
f 295/77/19 298/74/19 296/76/19
f 298/74/19 297/75/19 296/76/19
f 299/75/20 302/53/20 300/76/20
f 302/53/20 301/78/20 300/76/20
f 303/74/1 306/77/1 304/72/1
f 306/77/1 305/79/1 304/72/1
usemtl lambert4.001
f 287/62/5 290/73/5 288/53/5
f 290/73/5 289/72/5 288/53/5
usemtl Grass_01_c.001
f 126/88/5 129/89/5 127/90/5
f 129/89/5 128/91/5 127/90/5
f 130/92/5 132/93/5 131/94/5
f 133/54/5 136/95/5 134/96/5
f 136/95/5 135/97/5 134/96/5
f 137/98/5 140/99/5 138/53/5
f 140/99/5 139/100/5 138/53/5
f 208/54/5 211/89/5 209/96/5
f 211/89/5 210/91/5 209/96/5
f 212/98/5 215/93/5 213/53/5
f 215/93/5 214/101/5 213/53/5
usemtl Metal_Barrier_2_c.001
f 147/102/9 146/103/9 145/104/9
f 150/102/1 149/103/1 148/104/1
f 151/103/2 153/102/2 152/104/2
f 154/103/7 156/102/7 155/104/7
f 159/105/9 158/106/9 157/107/9
f 162/105/1 161/106/1 160/107/1
f 163/106/2 165/105/2 164/107/2
f 166/106/7 168/105/7 167/107/7
f 171/108/7 169/109/7 170/110/7
f 174/111/9 172/112/9 173/113/9
f 174/111/9 173/113/9 175/114/9
f 179/113/21 176/115/21 181/116/21
f 176/115/21 178/117/21 181/116/21
f 178/117/22 177/109/22 180/108/22
f 181/116/22 178/117/22 180/108/22
f 179/113/21 181/116/21 183/118/21
f 181/116/22 180/108/22 182/119/22
f 185/120/9 184/109/9 186/108/9
f 187/110/9 186/108/9 188/119/9
f 191/113/7 189/115/7 190/111/7
f 193/117/23 192/115/23 195/113/23
f 196/116/23 193/117/23 195/113/23
f 194/109/24 193/117/24 196/116/24
f 197/108/24 194/109/24 196/116/24
f 196/116/23 195/113/23 198/114/23
f 197/108/24 196/116/24 199/118/24
f 233/121/7 232/122/7 231/123/7
f 236/124/7 235/125/7 234/126/7
f 239/127/7 238/128/7 237/129/7
f 242/130/7 241/131/7 240/132/7
f 245/133/7 244/134/7 243/135/7
f 248/122/7 247/121/7 246/123/7
f 251/125/7 250/124/7 249/126/7
f 254/136/7 253/137/7 252/138/7
f 257/128/7 256/127/7 255/129/7
f 260/131/7 259/130/7 258/132/7
f 263/134/7 262/133/7 261/135/7
usemtl Tarmac_c
f 30/139/5 29/140/5 28/141/5
f 31/142/5 34/143/5 32/144/5
f 34/143/5 33/145/5 32/144/5
f 216/146/5 218/139/5 217/141/5
usemtl Bridge_Roof_c
f 1/147/25 2/148/25 3/149/25
f 40/150/25 35/151/25 36/152/25
f 37/153/25 40/150/25 36/152/25
f 37/153/25 38/154/25 40/150/25
f 42/148/25 39/155/25 46/156/25
f 40/150/25 41/147/25 43/149/25
f 43/149/25 42/148/25 46/156/25
f 43/149/25 46/156/25 44/157/25
f 46/156/25 45/158/25 44/157/25
