# Blender3D v249 OBJ File: 
# www.blender3d.org
mtllib cube_000036.mtl
v -6.112701 6.990304 -3.294177
v 3.887963 3.954397 -2.382407
v 0.967936 -6.042959 -3.642423
v -9.032727 -3.007051 -4.554193
v -7.346190 6.042961 7.080907
v 2.654472 3.007049 7.992677
v -0.265557 -6.990305 6.732660
v -10.266218 -3.954397 5.820891
vn 0.117576 0.090301 -0.988950
vn -0.117576 -0.090301 0.988950
vn 0.278336 0.952945 0.120104
vn 0.953260 -0.289382 0.086910
vn -0.278336 -0.952945 -0.120104
vn -0.953260 0.289382 -0.086909
usemtl Material.001
s off
f 1//1 2//1 3//1 4//1
f 5//2 8//2 7//2 6//2
f 1//3 5//3 6//3 2//3
f 2//4 6//4 7//4 3//4
f 3//5 7//5 8//5 4//5
f 5//6 1//6 4//6 8//6
