# Blender3D v249 OBJ File: 
# www.blender3d.org
mtllib cube_000012.mtl
v 0.287302 5.624641 -4.511636
v 5.810522 -1.163665 1.274059
v -1.357329 -8.591752 -0.598582
v -6.880548 -1.803443 -6.384276
v -5.020925 8.591752 4.037066
v 0.502291 1.803441 9.822761
v -6.665560 -5.624641 7.950118
v -12.188778 1.163665 2.164425
vn 0.505979 -0.282824 -0.814860
vn -0.505979 0.282824 0.814860
vn 0.683237 0.708043 0.178500
vn 0.526471 -0.647060 0.551491
vn -0.683237 -0.708043 -0.178500
vn -0.526471 0.647059 -0.551490
usemtl Material.001
s off
f 1//1 2//1 3//1 4//1
f 5//2 8//2 7//2 6//2
f 1//3 5//3 6//3 2//3
f 2//4 6//4 7//4 3//4
f 3//5 7//5 8//5 4//5
f 5//6 1//6 4//6 8//6
