# Blender v2.76 (sub 0) OBJ File: 'fiat500.blend'
# www.blender.org
mtllib porte.mtl
o Cube.003
v -2.209637 0.273002 0.892978
v -2.346008 0.114202 0.965091
v -1.996429 0.527358 0.783854
v -2.060818 0.178713 0.996882
v -2.018999 0.297637 0.913188
v -1.951270 0.564464 0.758679
v -1.544071 0.413627 0.832428
v -0.663343 0.505090 0.733093
v 0.253656 0.534972 0.679241
v -1.980988 0.326294 0.885836
v 0.563793 0.537598 0.703483
v 0.356680 0.536009 0.707430
v -2.008817 0.163235 0.978373
v -1.914603 0.590388 0.732763
v 0.241543 0.267243 0.735978
v -0.724782 0.190561 0.835517
v -1.630880 0.146959 0.930213
v -1.371582 0.840819 0.680021
v -0.531291 1.013324 0.568103
v 0.238354 1.032917 0.536835
v 0.594282 -0.046754 0.927137
v 0.617591 -0.718153 1.153399
v 0.605361 -0.954434 1.152807
v 0.503333 1.026551 0.589366
v 0.605535 -0.204033 1.066992
v 0.432711 -1.347288 1.158397
v 0.615557 -0.549743 1.146947
v 0.600267 0.205634 0.791363
v -2.428628 -0.202666 1.043315
v -0.740434 -0.064318 1.001583
v -2.252780 -0.202028 1.075025
v 0.133008 -0.057922 0.948327
v -1.653769 -0.103399 1.059250
v -1.971181 0.560814 0.783833
v -2.365295 0.074168 0.989618
v -0.740554 -0.766042 1.219987
v -2.270119 -0.936949 1.101670
v 0.122007 -0.709041 1.189156
v -1.655699 -0.833951 1.211791
v -0.742302 -0.991590 1.218239
v -2.248480 -1.057574 1.138455
v 0.121374 -0.964716 1.186091
v -1.656853 -1.009090 1.196373
v -0.558130 1.073557 0.587401
v -0.740547 -0.221631 1.132172
v -0.766554 -1.518597 1.215426
v -0.740554 -0.613272 1.214592
v -0.727381 0.141089 0.880728
v -1.897110 0.613935 0.750361
v 0.285649 1.074552 0.575333
v -1.388674 0.872427 0.695294
v -2.238882 -0.557748 1.127680
v -2.141505 -1.498129 1.086819
v -2.300473 -0.839109 1.091636
v -2.044204 0.134706 1.014594
v 0.121207 -0.220582 1.098722
v -1.653129 -0.334045 1.154965
v 0.080097 -1.448020 1.155083
v -1.661789 -1.513309 1.205697
v 0.121979 -0.540909 1.183770
v 0.298770 0.213085 0.799899
v -1.658786 -0.708803 1.208837
v -1.636620 0.114643 0.970043
vt 0.225078 0.755119
vt 0.222417 0.746297
vt 0.228223 0.745901
vt 0.161429 0.609571
vt 0.168575 0.617859
vt 0.182033 0.667112
vt 0.161226 0.623423
vt 0.186137 0.669702
vt 0.000098 0.907047
vt 0.008485 0.912839
vt 0.000098 0.971132
vt 0.106373 0.674522
vt 0.038933 0.619089
vt 0.211381 0.737516
vt 0.039178 0.613833
vt 0.207815 0.740520
vt 0.274881 0.585194
vt 0.277137 0.594831
vt 0.168757 0.617772
vt 0.360196 0.839953
vt 0.379258 0.835880
vt 0.569267 0.582304
vt 0.908578 0.604420
vt 0.892585 0.629834
vt 0.570075 0.594244
vt 0.635900 0.906852
vt 0.651338 0.892275
vt 0.900144 0.896035
vt 0.882549 0.877682
vt 0.836585 0.435366
vt 0.999899 0.443160
vt 0.998395 0.504538
vt 0.839497 0.504157
vt 0.998661 0.597673
vt 0.999747 0.311296
vt 0.832593 0.324240
vt 0.831136 0.274566
vt 0.998874 0.265972
vt 0.828620 0.194455
vt 0.999902 0.193569
vt 0.816751 0.013993
vt 0.922217 0.045552
vt 0.054914 0.505888
vt 0.000098 0.499432
vt 0.563446 0.504786
vt 0.558784 0.447592
vt 0.265323 0.512321
vt 0.256868 0.437463
vt 0.045659 0.372037
vt 0.548508 0.306948
vt 0.545914 0.265488
vt 0.541844 0.198688
vt 0.242749 0.302591
vt 0.239493 0.269182
vt 0.233612 0.217951
vt 0.002233 0.281705
vt 0.016383 0.253200
vt 0.018979 0.221360
vt 0.521509 0.000098
vt 0.212990 0.025588
vt 0.043026 0.034754
vt 0.315063 0.678605
vt 0.595315 0.707312
vt 0.901066 0.708243
vt 0.916251 0.705361
vt 0.991317 0.703822
vt 0.959518 0.892937
vn 0.438900 -0.562600 0.700600
vn 0.578400 -0.129000 0.805400
vn 0.415400 -0.151200 0.897000
vn 0.076600 0.411100 0.908300
vn 0.274600 0.521100 0.808100
vn 0.131300 0.491500 0.860900
vn 0.058400 0.504800 0.861200
vn 0.182200 0.414000 0.891800
vn -0.172300 0.552200 0.815700
vn -0.180100 0.481400 0.857800
vn -0.005600 0.395800 0.918300
vn -0.152400 0.315000 0.936700
vn 0.669300 -0.596300 0.443300
vn 0.066600 0.554800 0.829300
vn 0.078800 0.560900 0.824100
vn 0.262400 -0.394500 0.880600
vn 0.160800 -0.043600 0.986000
vn 0.038300 0.599200 0.799600
vn -0.037800 0.452400 0.891000
vn -0.141000 0.445600 0.884100
vn 0.050000 0.523700 0.850400
vn 0.124300 -0.362500 0.923600
vn 0.078200 -0.080900 0.993600
vn -0.167600 0.026900 0.985500
vn -0.141500 -0.055600 0.988300
vn 0.038900 0.461000 0.886500
vn 0.045000 0.473100 0.879800
vn 0.027200 0.572800 0.819200
vn 0.033500 0.574900 0.817500
vn 0.029700 0.372700 0.927500
vn 0.070300 0.137100 0.988000
vn 0.050000 0.138400 0.989100
vn 0.053500 0.013000 0.998500
vn 0.072100 0.013200 0.997300
vn 0.050700 -0.023800 0.998400
vn 0.058300 -0.021400 0.998000
vn 0.049800 -0.037800 0.998000
vn 0.040900 -0.038900 0.998400
vn -0.083000 0.242700 0.966500
vn -0.139200 0.240300 0.960600
vn 0.033300 0.523700 0.851200
vn 0.012100 0.406400 0.913600
vn 0.006200 0.359800 0.933000
vn -0.052000 0.249600 0.966900
vn -0.109300 0.115400 0.987300
vn 0.009800 0.117000 0.993100
vn 0.011500 0.003100 0.999900
vn 0.015800 -0.021400 0.999600
vn -0.082600 0.066700 0.994300
vn -0.088700 0.017700 0.995900
vn -0.084600 -0.007000 0.996400
vn -0.159200 0.034300 0.986600
vn -0.165600 0.044500 0.985200
vn -0.152600 0.005100 0.988300
vn 0.017200 -0.013900 0.999700
vn -0.088800 -0.027200 0.995700
vn -0.160600 -0.061500 0.985100
vn 0.035600 0.357600 0.933200
vn 0.064400 0.286000 0.956000
vn -0.200400 0.258900 0.944900
vn -0.190900 0.248200 0.949700
vn 0.015300 0.250000 0.968100
vn 0.002400 0.233300 0.972400
usemtl Material
s 1
f 49/1/1 6/2/2 14/3/3
f 55/4/4 13/5/5 5/6/6 4/7/7
f 14/3/3 6/2/2 5/6/6 10/8/8
f 55/9/4 13/10/5 10/8/8 5/11/6
f 1/12/9 2/13/10 4/7/7 5/6/6
f 3/14/11 1/12/9 5/6/6 6/2/2
f 35/15/12 55/4/4 4/7/7 2/13/10
f 49/1/1 34/16/13 3/14/11 6/2/2
f 55/4/4 63/17/14 17/18/15 13/19/5
f 51/20/16 49/1/1 14/3/3 18/21/17
f 48/22/18 61/23/19 15/24/20 16/25/21
f 63/17/14 48/22/18 16/25/21 17/18/15
f 44/26/22 51/20/16 18/21/17 19/27/23
f 50/28/24 44/26/22 19/27/23 20/29/25
f 56/30/26 25/31/27 21/32/28 32/33/29
f 32/33/29 21/32/28 28/34/30 61/23/19
f 27/35/31 60/36/32 38/37/33 22/38/34
f 22/38/34 38/37/33 42/39/35 23/40/36
f 23/40/36 42/39/35 58/41/37 26/42/38
f 60/36/32 27/35/31 25/31/27 56/30/26
f 31/43/39 55/4/4 35/15/12 29/44/40
f 32/33/29 61/23/19 48/22/18 30/45/41
f 56/30/26 32/33/29 30/45/41 45/46/42
f 30/45/41 48/22/18 63/17/14 33/47/43
f 45/46/42 30/45/41 33/47/43 57/48/44
f 33/47/43 63/17/14 55/4/4 31/43/39
f 57/48/44 33/47/43 31/43/39 52/49/45
f 38/37/33 60/36/32 47/50/46 36/51/47
f 42/39/35 38/37/33 36/51/47 40/52/48
f 36/51/47 47/50/46 62/53/49 39/54/50
f 40/52/48 36/51/47 39/54/50 43/55/51
f 39/54/50 62/53/49 54/56/52 37/57/53
f 43/55/51 39/54/50 37/57/53 41/58/54
f 58/41/37 42/39/35 40/52/48 46/59/55
f 46/59/55 40/52/48 43/55/51 59/60/56
f 59/60/56 43/55/51 41/58/54 53/61/57
f 47/50/46 60/36/32 56/30/26 45/46/42
f 62/53/49 47/50/46 45/46/42 57/48/44
f 54/56/52 62/53/49 57/48/44 52/49/45
usemtl Material.001
f 10/8/8 13/19/5 17/18/15 7/62/58
f 14/3/3 10/8/8 7/62/58 18/21/17
f 8/63/59 19/27/23 18/21/17 7/62/58
f 16/25/21 8/63/59 7/62/58 17/18/15
f 9/64/60 20/29/25 19/27/23 8/63/59
f 15/24/20 9/64/60 8/63/59 16/25/21
usemtl Material.003
f 12/65/61 50/28/24 20/29/25 9/64/60
f 61/23/19 12/65/61 9/64/60 15/24/20
f 11/66/62 24/67/63 50/28/24 12/65/61
f 28/34/30 11/66/62 12/65/61 61/23/19
