# Blender v2.76 (sub 0) OBJ File: 'race track.blend'
# www.blender.org
mtllib map3.mtl
o map4.001
v 2.540116 0.021795 2.452955
v 1.782586 0.021795 2.452955
v 1.782586 0.021796 -2.597247
v 2.540116 0.021796 -2.597247
v -1.752553 0.021795 2.452955
v -2.510084 0.021795 2.452955
v -2.510084 0.021796 -2.597247
v -1.752553 0.021796 -2.597247
v 2.040148 0.039897 2.452955
v 1.935326 0.039109 2.452955
v 1.935326 0.039110 -2.597247
v 2.040148 0.039898 -2.597247
v 1.935326 0.039110 -2.597247
v 1.935326 0.039109 2.452955
v 1.782567 0.021795 2.452955
v 1.782567 0.021796 -2.597247
v 2.540105 -0.483188 2.452954
v 2.540100 0.021795 2.452954
v 2.540105 -0.483187 -2.597247
v -1.752570 0.021795 2.452959
v -1.752570 0.021796 -2.597247
v 1.782583 0.021796 -2.597247
v 1.782583 0.021795 2.452959
v -2.010144 0.039898 -2.597247
v -1.905317 0.039110 -2.597247
v -1.905317 0.039109 2.452954
v -2.010144 0.039897 2.452954
v -1.905317 0.039109 2.452954
v -1.905317 0.039110 -2.597247
v -1.752573 0.021796 -2.597247
v -1.752573 0.021795 2.452954
v -2.010144 0.039897 2.452954
v -2.010144 0.021795 2.452954
v -2.010144 0.021796 -2.597247
v -2.010144 0.039898 -2.597247
vt 8.000000 0.926200
vt 0.000000 0.926200
vt 8.000000 0.593400
vt 0.000000 0.593400
vt 0.000000 0.000000
vt 8.000000 0.000000
vt 0.000000 1.000000
vt 8.000000 1.000000
vt 1.000000 0.000000
vt 1.000000 1.000000
vt -0.564300 0.000000
vt 1.564300 0.000000
vt -0.564300 0.499300
vt 2.000000 -0.000000
vt 2.000000 2.000000
vt 1.700000 -0.000000
vt 1.700000 2.000000
vt 0.300000 -0.000000
vt 0.300000 2.000000
vt 0.000000 2.000000
vn -0.007500 1.000000 0.000000
vn -0.112600 0.993600 0.000000
vn 0.007500 1.000000 0.000000
vn 0.112600 0.993600 0.000000
vn -1.000000 0.000000 0.000000
vn 0.000000 1.000000 0.000000
vn 1.000000 0.000000 0.000000
usemtl Curb_01_c.002
s off
f 9/1/1 12/2/1 10/3/1
f 12/2/1 11/4/1 10/3/1
f 13/4/2 16/5/2 14/3/2
f 16/5/2 15/6/2 14/3/2
f 24/1/3 27/2/3 25/3/3
f 27/2/3 26/4/3 25/3/3
f 28/4/4 31/5/4 29/3/4
f 31/5/4 30/6/4 29/3/4
f 32/2/5 35/1/5 33/7/5
f 35/1/5 34/8/5 33/7/5
usemtl Race_Track_Base_c.002
f 20/5/6 23/9/6 21/7/6
f 23/9/6 22/10/6 21/7/6
usemtl Bridge_Wall_c.002
f 17/11/7 19/12/7 18/13/7
usemtl Grass_01_c.002
f 1/14/6 4/15/6 2/16/6
f 4/15/6 3/17/6 2/16/6
f 5/18/6 8/19/6 6/5/6
f 8/19/6 7/20/6 6/5/6
