# Blender3D v249 OBJ File: 
# www.blender3d.org
mtllib cube_000010.mtl
v 2.189021 3.346172 -4.794178
v 5.208422 -3.319462 2.723392
v -3.420061 -9.061267 1.097876
v -6.439460 -2.395631 -6.419695
v -2.958193 9.061267 2.340609
v 0.061203 2.395629 9.858179
v -8.567279 -3.346172 8.232660
v -11.586678 3.319463 0.715092
vn 0.490631 -0.544761 -0.680085
vn -0.490631 0.544761 0.680086
vn 0.822464 0.547307 0.154944
vn 0.287808 -0.635366 0.716572
vn -0.822464 -0.547307 -0.154944
vn -0.287808 0.635366 -0.716572
usemtl Material.001
s off
f 1//1 2//1 3//1 4//1
f 5//2 8//2 7//2 6//2
f 1//3 5//3 6//3 2//3
f 2//4 6//4 7//4 3//4
f 3//5 7//5 8//5 4//5
f 5//6 1//6 4//6 8//6
