# Blender3D v249 OBJ File: 
# www.blender3d.org
mtllib cube_000004.mtl
v 2.520504 -4.151526 -4.000105
v 2.380814 -5.431745 6.411564
v -8.077034 -6.230405 6.173050
v -7.937342 -4.950186 -4.238619
v 1.698780 6.230405 -2.734565
v 1.559085 4.950186 7.677104
v -8.898761 4.151526 7.438587
v -8.759069 5.431745 -2.973080
vn 0.078327 -0.989603 -0.120631
vn -0.078327 0.989603 0.120631
vn 0.996839 0.076128 0.022735
vn -0.013315 -0.122030 0.992437
vn -0.996839 -0.076128 -0.022735
vn 0.013315 0.122030 -0.992437
usemtl Material.001
s off
f 1//1 2//1 3//1 4//1
f 5//2 8//2 7//2 6//2
f 1//3 5//3 6//3 2//3
f 2//4 6//4 7//4 3//4
f 3//5 7//5 8//5 4//5
f 5//6 1//6 4//6 8//6
