# Blender3D v249 OBJ File: 
# www.blender3d.org
mtllib cube_000011.mtl
v 1.340743 4.601114 -4.672628
v 5.598308 -2.291805 1.992365
v -2.336891 -8.918321 0.208203
v -6.594454 -2.025399 -6.456791
v -4.041362 8.918321 3.230282
v 0.216198 2.025397 9.895275
v -7.719001 -4.601114 8.111110
v -11.976563 2.291805 1.446118
vn 0.513021 -0.411515 -0.753303
vn -0.513021 0.411515 0.753303
vn 0.756381 0.631637 0.170066
vn 0.405830 -0.657031 0.635305
vn -0.756381 -0.631637 -0.170066
vn -0.405830 0.657031 -0.635305
usemtl Material.001
s off
f 1//1 2//1 3//1 4//1
f 5//2 8//2 7//2 6//2
f 1//3 5//3 6//3 2//3
f 2//4 6//4 7//4 3//4
f 3//5 7//5 8//5 4//5
f 5//6 1//6 4//6 8//6
