# Blender3D v249 OBJ File: 
# www.blender3d.org
mtllib cube_000016.mtl
v -4.212831 7.178897 -3.754465
v 4.950550 2.719043 -1.263784
v 0.769973 -6.767901 -2.870642
v -8.393408 -2.308045 -5.361323
v -7.148226 6.767902 6.309126
v 2.015152 2.308043 8.799807
v -2.165428 -7.178898 7.192948
v -11.328806 -2.719043 4.702267
vn 0.279801 0.039176 -0.959258
vn -0.279801 -0.039176 0.959258
vn 0.398492 0.904293 0.153165
vn 0.873450 -0.425112 0.237411
vn -0.398491 -0.904293 -0.153165
vn -0.873451 0.425112 -0.237411
usemtl Material.001
s off
f 1//1 2//1 3//1 4//1
f 5//2 8//2 7//2 6//2
f 1//3 5//3 6//3 2//3
f 2//4 6//4 7//4 3//4
f 3//5 7//5 8//5 4//5
f 5//6 1//6 4//6 8//6
