# Blender3D v249 OBJ File: 
# www.blender3d.org
mtllib cube_000006.mtl
v 3.028321 -2.220038 -4.522613
v 3.063445 -5.422220 5.467688
v -7.190856 -7.542694 4.824066
v -7.225977 -4.340511 -5.166236
v 0.812602 7.542694 -1.385581
v 0.847720 4.340510 8.604720
v -9.406579 2.220039 7.961095
v -9.441701 5.422221 -2.029204
vn 0.211202 -0.930581 -0.299021
vn -0.211202 0.930581 0.299021
vn 0.977437 0.202123 0.061350
vn 0.003348 -0.305231 0.952272
vn -0.977437 -0.202123 -0.061350
vn -0.003348 0.305231 -0.952272
usemtl Material.001
s off
f 1//1 2//1 3//1 4//1
f 5//2 8//2 7//2 6//2
f 1//3 5//3 6//3 2//3
f 2//4 6//4 7//4 3//4
f 3//5 7//5 8//5 4//5
f 5//6 1//6 4//6 8//6
