# Blender3D v249 OBJ File: 
# www.blender3d.org
mtllib cube_000009.mtl
v 2.776518 1.937221 -4.853751
v 4.692255 -4.172757 3.456451
v -4.524857 -8.980808 2.046191
v -6.440591 -2.870829 -6.264011
v -1.853397 8.980808 1.392294
v 0.062334 2.870827 9.702495
v -9.154776 -1.937220 8.292233
v -11.070510 4.172758 -0.017967
vn 0.441322 -0.671393 -0.595371
vn -0.441322 0.671393 0.595371
vn 0.878572 0.458302 0.134426
vn 0.182607 -0.582401 0.792126
vn -0.878572 -0.458302 -0.134426
vn -0.182607 0.582401 -0.792126
usemtl Material.001
s off
f 1//1 2//1 3//1 4//1
f 5//2 8//2 7//2 6//2
f 1//3 5//3 6//3 2//3
f 2//4 6//4 7//4 3//4
f 3//5 7//5 8//5 4//5
f 5//6 1//6 4//6 8//6
